<svg width="414" height="62" viewBox="0 0 414 62" fill="none" xmlns="http://www.w3.org/2000/svg">
<path d="M59.69 11.8601L41.14 36.2201L0 11.8601H59.69Z" fill="#FF781D"/>
<path d="M41.14 36.2201L24.51 58.0501L59.69 47.2001V11.8601L41.14 36.2201Z" fill="#F1945C"/>
<path d="M79.28 17.18C81.35 12.71 85.1 10.47 90.53 10.47V17.03C87.45 16.89 84.81 17.6999 82.6 19.4799C80.39 21.2599 79.28 24.12 79.28 28.06V47.17H73.01V11.11H79.28V17.17V17.18Z" fill="#000E16"/>
<path d="M100.34 32.0399C100.96 35.2599 102.44 37.7599 104.78 39.5399C107.11 41.3199 109.98 42.21 113.4 42.21C118.16 42.21 121.62 40.46 123.78 36.95L129.12 39.9799C125.61 45.4099 120.32 48.1299 113.26 48.1299C107.54 48.1299 102.89 46.3399 99.31 42.7599C95.73 39.1799 93.94 34.65 93.94 29.17C93.94 23.69 95.69 19.22 99.2 15.61C102.71 12 107.25 10.2 112.83 10.2C118.12 10.2 122.43 12.0599 125.77 15.7899C129.11 19.5199 130.78 24 130.78 29.24C130.78 30.15 130.71 31.09 130.56 32.05H100.34V32.0399ZM112.82 16.0999C109.45 16.0999 106.67 17.05 104.46 18.95C102.25 20.85 100.88 23.39 100.35 26.56H124.44C123.91 23.15 122.56 20.55 120.4 18.77C118.24 16.99 115.71 16.0999 112.83 16.0999H112.82Z" fill="#000E16"/>
<path d="M143.39 20.7499C143.39 22.1099 144.1 23.2099 145.51 24.0299C146.93 24.8499 148.61 25.5499 150.57 26.1299C152.53 26.7099 154.5 27.2799 156.48 27.8699C158.46 28.4499 160.14 29.5399 161.51 31.1399C162.88 32.7399 163.57 34.7899 163.57 37.2999C163.57 40.5699 162.31 43.1899 159.78 45.1599C157.26 47.1299 154.02 48.1199 150.08 48.1199C146.57 48.1199 143.57 47.3499 141.07 45.8099C138.57 44.2699 136.79 42.2299 135.73 39.6799L141.14 36.5799C141.72 38.3099 142.8 39.6799 144.39 40.6899C145.98 41.6999 147.88 42.1999 150.09 42.1999C152.16 42.1999 153.86 41.7999 155.21 41.0099C156.56 40.2199 157.23 38.9799 157.23 37.2999C157.23 35.9099 156.53 34.7899 155.14 33.9499C153.74 33.1099 152.07 32.3999 150.11 31.8099C148.15 31.2199 146.18 30.6299 144.2 30.0399C142.22 29.4399 140.53 28.3799 139.14 26.8399C137.74 25.2999 137.05 23.3299 137.05 20.9299C137.05 17.8099 138.26 15.2299 140.69 13.2099C143.12 11.1899 146.16 10.1799 149.81 10.1799C152.74 10.1799 155.35 10.8399 157.63 12.1599C159.91 13.4799 161.63 15.3199 162.79 17.6799L157.53 20.6399C156.23 17.5599 153.66 16.0299 149.81 16.0299C148.03 16.0299 146.52 16.4399 145.27 17.2599C144.02 18.0799 143.39 19.2499 143.39 20.7499Z" fill="#000E16"/>
<path d="M189.47 10.1899C194.52 10.1899 198.82 12.0299 202.38 15.7099C205.94 19.3899 207.72 23.8699 207.72 29.1599C207.72 34.4499 205.94 38.9299 202.38 42.6099C198.82 46.2899 194.52 48.1299 189.47 48.1299C183.51 48.1299 178.97 45.7499 175.84 40.9899V61.6099H169.57V11.1299H175.84V17.3299C178.96 12.5699 183.51 10.1899 189.47 10.1899ZM188.68 42.0599C192.29 42.0599 195.31 40.8199 197.77 38.3499C200.22 35.8699 201.45 32.8099 201.45 29.1599C201.45 25.5099 200.22 22.4399 197.77 19.9699C195.32 17.4899 192.29 16.2599 188.68 16.2599C185.07 16.2599 181.97 17.4999 179.52 19.9699C177.07 22.4499 175.84 25.5099 175.84 29.1599C175.84 32.8099 177.07 35.8799 179.52 38.3499C181.97 40.8299 185.02 42.0599 188.68 42.0599Z" fill="#000E16"/>
<path d="M245.64 42.64C241.94 46.29 237.44 48.12 232.16 48.12C226.88 48.12 222.39 46.29 218.71 42.64C215.03 38.99 213.19 34.4899 213.19 29.1599C213.19 23.8299 215.03 19.33 218.71 15.68C222.39 12.03 226.87 10.2 232.16 10.2C237.45 10.2 241.94 12.03 245.64 15.68C249.34 19.33 251.19 23.8299 251.19 29.1599C251.19 34.4899 249.34 38.99 245.64 42.64ZM232.16 41.99C235.77 41.99 238.79 40.76 241.25 38.31C243.71 35.86 244.93 32.81 244.93 29.15C244.93 25.49 243.7 22.44 241.25 19.99C238.8 17.54 235.77 16.31 232.16 16.31C228.55 16.31 225.6 17.54 223.15 19.99C220.7 22.44 219.47 25.5 219.47 29.15C219.47 32.8 220.7 35.86 223.15 38.31C225.6 40.76 228.61 41.99 232.16 41.99Z" fill="#000E16"/>
<path d="M275.14 10.1899C279.37 10.1899 282.76 11.5199 285.31 14.1899C287.86 16.8599 289.13 20.4799 289.13 25.0399V47.1799H282.86V25.3999C282.86 22.4699 282.07 20.1999 280.48 18.5799C278.89 16.9699 276.71 16.1599 273.92 16.1599C270.79 16.1599 268.27 17.1299 266.35 19.0799C264.43 21.0299 263.46 24.0199 263.46 28.0599V47.1699H257.19V11.1099H263.46V16.2999C266.01 12.2099 269.9 10.1699 275.14 10.1699V10.1899Z" fill="#000E16"/>
<path d="M301.82 20.7499C301.82 22.1099 302.53 23.2099 303.94 24.0299C305.36 24.8499 307.04 25.5499 309 26.1299C310.96 26.7099 312.93 27.2799 314.91 27.8699C316.89 28.4499 318.57 29.5399 319.94 31.1399C321.31 32.7399 322 34.7899 322 37.2999C322 40.5699 320.74 43.1899 318.21 45.1599C315.69 47.1299 312.45 48.1199 308.51 48.1199C305 48.1199 301.99 47.3499 299.5 45.8099C297 44.2699 295.22 42.2299 294.16 39.6799L299.57 36.5799C300.15 38.3099 301.23 39.6799 302.81 40.6899C304.4 41.6999 306.29 42.1999 308.51 42.1999C310.58 42.1999 312.28 41.7999 313.63 41.0099C314.98 40.2199 315.65 38.9799 315.65 37.2999C315.65 35.9099 314.95 34.7899 313.56 33.9499C312.16 33.1099 310.49 32.3999 308.53 31.8099C306.57 31.2199 304.6 30.6299 302.62 30.0399C300.64 29.4399 298.95 28.3799 297.56 26.8399C296.16 25.2999 295.47 23.3299 295.47 20.9299C295.47 17.8099 296.68 15.2299 299.11 13.2099C301.54 11.1899 304.58 10.1799 308.23 10.1799C311.16 10.1799 313.77 10.8399 316.06 12.1599C318.34 13.4799 320.06 15.3199 321.22 17.6799L315.96 20.6399C314.66 17.5599 312.09 16.0299 308.24 16.0299C306.46 16.0299 304.95 16.4399 303.7 17.2599C302.45 18.0799 301.83 19.2499 301.83 20.7499H301.82Z" fill="#000E16"/>
<path d="M334.26 11.13H327.99V47.19H334.26V11.13Z" fill="#000E16"/>
<path d="M369.1 11.13H375.88L361.46 47.19H354.11L339.69 11.13H346.47L357.79 40.4L369.11 11.13H369.1Z" fill="#000E16"/>
<path d="M383.45 32.0399C384.07 35.2599 385.55 37.7599 387.88 39.5399C390.21 41.3199 393.08 42.21 396.5 42.21C401.26 42.21 404.72 40.46 406.88 36.95L412.22 39.9799C408.71 45.4099 403.42 48.1299 396.35 48.1299C390.63 48.1299 385.98 46.3399 382.4 42.7599C378.82 39.1799 377.03 34.65 377.03 29.17C377.03 23.69 378.78 19.22 382.29 15.61C385.8 12 390.34 10.2 395.92 10.2C401.21 10.2 405.52 12.0599 408.86 15.7899C412.2 19.5199 413.87 24 413.87 29.24C413.87 30.15 413.8 31.09 413.65 32.05H383.44L383.45 32.0399ZM395.93 16.0999C392.56 16.0999 389.78 17.05 387.56 18.95C385.35 20.85 383.98 23.39 383.45 26.56H407.53C407 23.15 405.66 20.55 403.49 18.77C401.33 16.99 398.8 16.0999 395.92 16.0999H395.93Z" fill="#000E16"/>
<path d="M334.26 0H327.99V6.26999H334.26V0Z" fill="#000E16"/>
</svg>
