<?xml version="1.0" encoding="UTF-8"?>
<svg id="Layer_2" data-name="Layer 2" xmlns="http://www.w3.org/2000/svg" viewBox="0 0 1791.53 266.68">
  <defs>
    <style>
      .cls-1 {
        fill: #fff;
      }

      .cls-2 {
        fill: #f1945c;
      }

      .cls-3 {
        fill: #ff781d;
      }
    </style>
  </defs>
  <g id="Layer_1-2" data-name="Layer 1">
    <g>
      <g>
        <polygon class="cls-3" points="258.35 51.37 178.05 156.78 0 51.37 258.35 51.37"/>
        <polygon class="cls-2" points="178.05 156.78 106.08 251.31 258.35 204.32 258.35 51.37 178.05 156.78"/>
      </g>
      <g>
        <path class="cls-1" d="m343.18,74.4c8.95-19.35,25.18-29.03,48.7-29.03v28.41c-13.32-.62-24.77,2.92-34.34,10.61-9.57,7.7-14.36,20.09-14.36,37.15v82.72h-27.16V48.18h27.16v26.22Z"/>
        <path class="cls-1" d="m434.32,138.7c2.7,13.94,9.1,24.77,19.2,32.46,10.09,7.7,22.52,11.55,37.3,11.55,20.6,0,35.58-7.59,44.95-22.79l23.1,13.11c-15.19,23.52-38.08,35.27-68.67,35.27-24.77,0-44.9-7.75-60.4-23.25-15.51-15.5-23.25-35.12-23.25-58.84s7.59-43.08,22.79-58.69c15.19-15.6,34.85-23.41,58.99-23.41,22.89,0,41.57,8.07,56.03,24.19,14.46,16.13,21.7,35.54,21.7,58.22,0,3.95-.31,8.01-.93,12.17h-130.79Zm54-68.98c-14.57,0-26.64,4.11-36.21,12.33-9.58,8.22-15.51,19.2-17.8,32.93h104.26c-2.29-14.77-8.12-26.01-17.48-33.71-9.37-7.7-20.29-11.55-32.78-11.55Z"/>
        <path class="cls-1" d="m620.67,89.86c0,5.9,3.06,10.63,9.19,14.2,6.13,3.56,13.43,6.59,21.91,9.08,8.48,2.49,17.01,5,25.59,7.52,8.58,2.52,15.84,7.24,21.79,14.17,5.94,6.93,8.92,15.82,8.92,26.68,0,14.15-5.46,25.49-16.39,34.02-10.92,8.53-24.92,12.8-41.99,12.8-15.19,0-28.2-3.33-39.02-9.99-10.82-6.66-18.52-15.5-23.1-26.53l23.41-13.42c2.5,7.49,7.18,13.42,14.05,17.79,6.87,4.37,15.09,6.56,24.66,6.56,8.95,0,16.33-1.71,22.16-5.14,5.82-3.43,8.74-8.78,8.74-16.05,0-6.02-3.03-10.85-9.06-14.49-6.04-3.64-13.31-6.73-21.78-9.27-8.48-2.55-17.01-5.11-25.59-7.68-8.58-2.58-15.88-7.19-21.92-13.85-6.04-6.66-9.05-15.19-9.05-25.59,0-13.53,5.26-24.66,15.77-33.4,10.5-8.74,23.67-13.11,39.49-13.11,12.69,0,23.98,2.87,33.87,8.59,9.88,5.72,17.33,13.68,22.32,23.88l-22.79,12.8c-5.62-13.31-16.75-19.98-33.4-19.98-7.7,0-14.26,1.78-19.66,5.34-5.42,3.56-8.12,8.6-8.12,15.11Z"/>
        <path class="cls-1" d="m820.13,44.12c21.85,0,40.47,7.96,55.87,23.88,15.4,15.92,23.1,35.33,23.1,58.22s-7.7,42.29-23.1,58.21c-15.4,15.92-34.02,23.88-55.87,23.88-25.81,0-45.47-10.3-59-30.9v89.27h-27.16V48.18h27.16v26.85c13.53-20.6,33.19-30.9,59-30.9Zm-3.43,137.97c15.6,0,28.72-5.35,39.33-16.07,10.61-10.72,15.92-23.98,15.92-39.8s-5.31-29.08-15.92-39.8c-10.61-10.72-23.73-16.08-39.33-16.08s-29.03,5.36-39.64,16.08c-10.61,10.72-15.92,23.99-15.92,39.8s5.31,29.08,15.92,39.8c10.61,10.72,23.82,16.07,39.64,16.07Z"/>
        <path class="cls-1" d="m1063.29,184.59c-16.03,15.82-35.48,23.72-58.37,23.72s-42.29-7.91-58.21-23.72c-15.92-15.81-23.88-35.27-23.88-58.37s7.96-42.56,23.88-58.37c15.92-15.81,35.32-23.73,58.21-23.73s42.34,7.91,58.37,23.73c16.02,15.82,24.04,35.27,24.04,58.37s-8.02,42.56-24.04,58.37Zm-58.37-2.81c15.61,0,28.71-5.31,39.33-15.92s15.92-23.82,15.92-39.64-5.31-29.03-15.92-39.64c-10.61-10.61-23.72-15.92-39.33-15.92s-28.4,5.31-39.02,15.92-15.92,23.83-15.92,39.64,5.31,29.03,15.92,39.64c10.61,10.61,23.62,15.92,39.02,15.92Z"/>
        <path class="cls-1" d="m1190.96,44.12c18.31,0,32.98,5.78,44.01,17.33,11.03,11.55,16.55,27.21,16.55,46.98v95.83h-27.16v-94.27c0-12.69-3.43-22.52-10.3-29.5-6.87-6.97-16.34-10.46-28.41-10.46-13.53,0-24.45,4.21-32.77,12.64-8.33,8.43-12.49,21.38-12.49,38.86v82.72h-27.16V48.18h27.16v22.48c11.03-17.68,27.88-26.53,50.57-26.53Z"/>
        <path class="cls-1" d="m1306.45,89.86c0,5.9,3.06,10.63,9.19,14.2,6.13,3.56,13.43,6.59,21.92,9.08,8.48,2.49,17.01,5,25.59,7.52,8.58,2.52,15.84,7.24,21.78,14.17,5.95,6.93,8.92,15.82,8.92,26.68,0,14.15-5.46,25.49-16.39,34.02-10.92,8.53-24.92,12.8-41.98,12.8-15.19,0-28.2-3.33-39.02-9.99-10.82-6.66-18.52-15.5-23.1-26.53l23.41-13.42c2.49,7.49,7.18,13.42,14.04,17.79,6.87,4.37,15.08,6.56,24.66,6.56,8.94,0,16.33-1.71,22.16-5.14,5.83-3.43,8.74-8.78,8.74-16.05,0-6.02-3.03-10.85-9.06-14.49-6.04-3.64-13.31-6.73-21.78-9.27-8.48-2.55-17.01-5.11-25.58-7.68-8.58-2.58-15.89-7.19-21.92-13.85-6.04-6.66-9.05-15.19-9.05-25.59,0-13.53,5.25-24.66,15.76-33.4,10.51-8.74,23.67-13.11,39.49-13.11,12.69,0,23.99,2.87,33.87,8.59,9.88,5.72,17.32,13.68,22.32,23.88l-22.79,12.8c-5.62-13.31-16.75-19.98-33.4-19.98-7.7,0-14.26,1.78-19.66,5.34-5.41,3.56-8.11,8.6-8.11,15.11Z"/>
        <rect class="cls-1" x="1419.76" y="48.18" width="27.16" height="156.08"/>
        <path class="cls-1" d="m1597.68,48.18h29.34l-62.43,156.08h-31.83l-62.43-156.08h29.34l49.01,126.72,49.01-126.72Z"/>
        <path class="cls-1" d="m1659.8,138.7c2.7,13.94,9.1,24.77,19.19,32.46,10.09,7.7,22.53,11.55,37.3,11.55,20.6,0,35.58-7.59,44.95-22.79l23.1,13.11c-15.19,23.52-38.08,35.27-68.68,35.27-24.77,0-44.9-7.75-60.4-23.25-15.51-15.5-23.26-35.12-23.26-58.84s7.59-43.08,22.79-58.69c15.19-15.6,34.86-23.41,59-23.41,22.88,0,41.56,8.07,56.03,24.19,14.46,16.13,21.69,35.54,21.69,58.22,0,3.95-.31,8.01-.94,12.17h-130.79Zm54-68.98c-14.57,0-26.64,4.11-36.21,12.33-9.57,8.22-15.5,19.2-17.79,32.93h104.25c-2.29-14.77-8.11-26.01-17.48-33.71-9.36-7.7-20.29-11.55-32.77-11.55Z"/>
        <rect class="cls-1" x="1419.76" width="27.16" height="27.16"/>
      </g>
    </g>
  </g>
</svg>